<svg width="88" height="99" viewBox="0 0 88 99" fill="none" xmlns="http://www.w3.org/2000/svg">
<path d="M57 59C48.6154 50.9117 37.7896 46.2879 27.9999 31.5C19.9999 34.5 9.08923 41.7919 -3.71536e-05 35.3048C1.5197 38.0851 2.99843 40.744 4.44097 43.2922C9.38779 44.5477 15.8629 43.989 18.4963 42.7294C17.113 45.321 11.1892 47.4552 7.02822 47.8083C7.29562 48.2692 7.56067 48.7235 7.82547 49.1762C10.5214 50.3269 12.5961 49.1706 15.2704 48.3738C13.6656 49.9887 11.6922 51.8833 10.2331 53.2368C11.3651 55.12 12.4742 56.9282 13.5589 58.6555C17.7024 60.0261 21.949 58.8745 26.2724 55.841C22.9315 58.6051 19.1471 61.759 16.7843 63.6624C17.7851 65.1772 18.8057 66.6769 19.8456 68.1606C22.7281 67.7036 25.6815 64.0607 28.5791 62.9269C24.0835 67.8529 23.5389 70.6195 23.4747 73.1232C24.1055 73.9469 24.7463 74.7608 25.397 75.5644C26.7487 73.7823 28.4319 74.2546 30.6403 72.9602C28.73 75.2577 28.5457 77.351 28.7094 79.4373C29.5867 80.4017 30.4485 81.2964 31.2964 82.1273C31.1555 79.8655 33.7374 78.5485 35.6505 76.9997C33.4206 79.54 32.8352 81.7374 33.0455 83.7686C37.5374 87.7772 41.6416 89.8763 45.5752 90.3247C45.2176 88.5053 45.5 86.2212 45.5327 84.1184C45.8072 86.9011 46.3824 88.9104 47.1532 90.4169C47.693 90.4186 48.2264 90.39 48.7518 90.3315C45.9974 79.3359 54.5 66 57 59Z" fill="black"/>
<path d="M87.2656 0.739341C87.4984 0.97153 87.6831 1.24736 87.8091 1.55103C87.9351 1.85471 88 2.18026 88 2.50904C88 2.83782 87.9351 3.16337 87.8091 3.46704C87.6831 3.77071 87.4984 4.04654 87.2656 4.27873L67.4766 24.0553C66.4236 22.7566 65.2372 21.5719 63.9368 20.5209L83.7258 0.734342C83.958 0.501566 84.2338 0.316884 84.5375 0.190873C84.8413 0.0648625 85.1668 0 85.4957 0C85.8245 0 86.1501 0.0648625 86.4538 0.190873C86.7575 0.316884 87.0334 0.501566 87.2656 0.734342V0.739341ZM36.2632 25.955L34.3083 27.7797L60.282 53.7502L62.2619 51.7705C63.9784 50.0654 65.3406 48.0375 66.2702 45.8038C67.1998 43.5701 67.6784 41.1747 67.6784 38.7553C67.6784 36.3359 67.1998 33.9404 66.2702 31.7067C65.3406 29.473 63.9784 27.4452 62.2619 25.74C54.9972 18.4763 43.4378 18.8162 36.2632 25.955ZM19.4641 35.2284L29.9285 30.4692L57.5271 58.0645L52.7774 68.5327C52.6102 68.9013 52.356 69.2238 52.0367 69.4724C51.7174 69.7211 51.3424 69.8886 50.944 69.9604C50.5457 70.0322 50.1359 70.0062 49.7498 69.8846C49.3637 69.763 49.0129 69.5496 48.7276 69.2625L18.7291 39.2677C18.4443 38.982 18.233 38.6316 18.113 38.2464C17.9931 37.8612 17.9682 37.4528 18.0404 37.0559C18.1126 36.659 18.2798 36.2855 18.5277 35.9673C18.7756 35.649 19.0969 35.3955 19.4641 35.2284Z" fill="black"/>
</svg>
