<svg width="26" height="19" viewBox="0 0 26 19" fill="none" xmlns="http://www.w3.org/2000/svg">
<path fill-rule="evenodd" clip-rule="evenodd" d="M24.7919 1.38871C25.1434 1.74033 25.3409 2.21715 25.3409 2.71434C25.3409 3.21152 25.1434 3.68835 24.7919 4.03996L10.7381 18.0937C10.5524 18.2795 10.3319 18.4268 10.0892 18.5274C9.84654 18.6279 9.58643 18.6797 9.32375 18.6797C9.06107 18.6797 8.80096 18.6279 8.55828 18.5274C8.3156 18.4268 8.0951 18.2795 7.90938 18.0937L0.926877 11.1125C0.747795 10.9395 0.604954 10.7326 0.506687 10.5038C0.40842 10.2751 0.356696 10.029 0.354532 9.78009C0.352369 9.53113 0.39981 9.28423 0.494087 9.0538C0.588363 8.82337 0.727588 8.61402 0.903637 8.43797C1.07969 8.26192 1.28903 8.1227 1.51946 8.02842C1.74989 7.93414 1.99679 7.8867 2.24575 7.88887C2.49472 7.89103 2.74075 7.94275 2.96951 8.04102C3.19827 8.13929 3.40516 8.28213 3.57813 8.46121L9.32313 14.2062L22.1394 1.38871C22.3135 1.21447 22.5203 1.07625 22.7478 0.981952C22.9754 0.887649 23.2193 0.839111 23.4656 0.839111C23.712 0.839111 23.9559 0.887649 24.1834 0.981952C24.411 1.07625 24.6178 1.21447 24.7919 1.38871Z" fill="#D9D9D9"/>
</svg>
