<svg width="32" height="30" viewBox="0 0 32 30" fill="none" xmlns="http://www.w3.org/2000/svg">
<path d="M14.0205 27.4759L14.0198 27.4752C9.89017 23.6488 6.50202 20.505 4.14045 17.5528C1.78468 14.6078 0.5 11.9127 0.5 8.99183C0.5 4.20658 4.15766 0.5 8.8 0.5C11.4288 0.5 13.9632 1.75307 15.6171 3.72213L16 4.17794L16.3829 3.72213C18.0368 1.75307 20.5712 0.5 23.2 0.5C27.8423 0.5 31.5 4.20658 31.5 8.99183C31.5 11.9127 30.2153 14.6078 27.8596 17.5528C25.498 20.505 22.1098 23.6488 17.9802 27.4752L17.9795 27.4759L16 29.3171L14.0205 27.4759Z" fill="#F0EAEA" stroke="white"/>
</svg>
