<svg xmlns="http://www.w3.org/2000/svg" viewBox="0 0 225.18 310"><defs><style>.cls-1{fill:none;}.cls-2{fill:#fff;}.cls-3{stroke:#000;stroke-linecap:round;stroke-linejoin:round;stroke-width:15px;}</style></defs><title>icon_walk</title><g id="Layer_2" data-name="Layer 2"><g id="Layer_1-2" data-name="Layer 1"><path class="cls-1" d="M151.3,100.35a12.19,12.19,0,0,1,1.11,1.54A12.19,12.19,0,0,0,151.3,100.35Z"/><path class="cls-1" d="M136.7,94.1h-.29c.15,0,.3,0,.44,0Z"/><path class="cls-1" d="M47.12,168.5c-.31.18-.62.37-.95.53C46.5,168.87,46.81,168.68,47.12,168.5Z"/><path class="cls-1" d="M146.91,96.72l.31.19Z"/><path class="cls-1" d="M34,171l-.78-.1Z"/><path class="cls-1" d="M135.17,94.16l.49,0Z"/><path class="cls-1" d="M40.81,170.82c-.3.05-.59.11-.89.15C40.22,170.93,40.51,170.87,40.81,170.82Z"/><path class="cls-1" d="M134,94.28l.47,0Z"/><path class="cls-1" d="M47.59,168.24c.46-.29.9-.6,1.33-.93L93.47,133.2,48.92,167.31C48.49,167.64,48.05,168,47.59,168.24Z"/><path class="cls-1" d="M138.26,94.16h0Z"/><path class="cls-1" d="M141.23,94.58l.2,0Z"/><path class="cls-1" d="M142.76,95l.34.1Z"/><path class="cls-1" d="M44,170c-.29.1-.58.21-.88.3C43.44,170.16,43.73,170.05,44,170Z"/><path class="cls-1" d="M139.66,94.31l.39,0Z"/><path class="cls-1" d="M45.58,169.3c-.3.14-.59.28-.9.41C45,169.58,45.28,169.44,45.58,169.3Z"/><path class="cls-1" d="M145.69,96.08l.23.12Z"/><path class="cls-1" d="M144.14,95.43l.31.11Z"/><path class="cls-1" d="M42.43,170.45l-.88.23Z"/><path class="cls-1" d="M29.09,169.77l-.68-.26Z"/><path class="cls-1" d="M35.72,171.16l-.79,0Z"/><path class="cls-1" d="M27.53,169.08c-.2-.1-.41-.19-.61-.3C27.12,168.89,27.33,169,27.53,169.08Z"/><path class="cls-1" d="M154.17,108.79a11.18,11.18,0,0,1-.27,1.8l-2.13,9.07h0l2.13-9.07A11.18,11.18,0,0,0,154.17,108.79Z"/><path class="cls-1" d="M36.79,171.2l.71,0-.88,0Z"/><path class="cls-1" d="M30.69,170.32,30,170.1Z"/><path class="cls-1" d="M193,308.25A19.6,19.6,0,0,1,191,309,19.6,19.6,0,0,0,193,308.25Z"/><path class="cls-1" d="M32.34,170.73l-.75-.16Z"/><path class="cls-1" d="M26,168.22c-.16-.1-.33-.19-.49-.3C25.66,168,25.83,168.12,26,168.22Z"/><path class="cls-1" d="M200.13,302.4a13.83,13.83,0,0,1-1.82,2.27A13.83,13.83,0,0,0,200.13,302.4Z"/><polygon class="cls-1" points="116.34 226.81 134.82 253.37 116.34 226.81 116.34 226.81"/><path class="cls-1" d="M132.74,94.46l.39-.06Z"/><path class="cls-1" d="M73.76,109.78a18.72,18.72,0,0,1,3.5-1.65A18.72,18.72,0,0,0,73.76,109.78Z"/><polygon class="cls-1" points="134.09 194.82 134.09 194.82 143.57 154.51 143.57 154.51 134.09 194.82"/><path class="cls-1" d="M202,296a11.69,11.69,0,0,1-1.91,6.45A11.69,11.69,0,0,0,202,296Z"/><path class="cls-1" d="M39.16,171.06l-.88.09Z"/><path d="M98.45,199.41a11.31,11.31,0,0,1-.22-2.39A11.31,11.31,0,0,0,98.45,199.41Z"/><path d="M99.19,201.73a11.59,11.59,0,0,1-.74-2.32A11.59,11.59,0,0,0,99.19,201.73Z"/><path d="M100.42,203.93a12.29,12.29,0,0,1-1.23-2.2,12.29,12.29,0,0,0,1.23,2.2l15.92,22.87h0Z"/><path d="M90.9,202.12,70.17,231.69l-60,27.66a17.5,17.5,0,1,0,14.65,31.79l64.29-29.65a17.43,17.43,0,0,0,7-5.85l15.32-21.86L93.85,208.5A20.17,20.17,0,0,1,90.9,202.12Z"/><path d="M216.7,157.71l-57.51-34.65-8.42,35.79,47.87,28.84a17.5,17.5,0,0,0,18.06-30Z"/><polygon points="143.57 154.51 143.57 154.51 151.77 119.66 151.77 119.66 143.57 154.51"/><path d="M199.85,289.33l-65.76-94.51,9.48-40.31,8.2-34.85,2.13-9.07a11.18,11.18,0,0,0,.27-1.8q0-.45,0-.9a10.62,10.62,0,0,0-.17-1.78,11.4,11.4,0,0,0-.77-2.58,12.81,12.81,0,0,0-2-3.18,15.43,15.43,0,0,0-3-2.72c-.36-.25-.74-.49-1.13-.72l-.31-.19c-.33-.18-.65-.36-1-.52l-.23-.12c-.4-.19-.82-.37-1.24-.54l-.31-.11c-.34-.13-.69-.25-1-.36l-.34-.1c-.43-.13-.88-.25-1.33-.35l-.2,0-1.18-.22-.39,0c-.42-.06-.85-.11-1.28-.14h-.12c-.47,0-.94,0-1.41,0-.14,0-.29,0-.44,0l-.75,0-.49,0-.75.07-.47,0c-.27,0-.55.07-.82.12l-.39.06c-.4.08-.8.16-1.2.26L79.18,107.56q-1,.24-1.92.57a18.72,18.72,0,0,0-3.5,1.65,14.24,14.24,0,0,0-1.56,1.06l-47.55,36.4c-4.78,3.67-6.38,9-4.73,13.75a12.24,12.24,0,0,0,1.22,2.53A13.84,13.84,0,0,0,23,165.86a15.16,15.16,0,0,0,1.18,1.07c.42.35.87.68,1.32,1,.16.11.33.2.49.3.31.19.61.38.93.56s.41.2.61.3l.88.43.68.26c.29.11.58.23.89.33l.71.22c.3.08.6.18.9.25l.75.16c.3.06.6.13.9.18l.78.1.91.11.79,0,.9,0,.88,0,.78,0,.88-.09c.26,0,.51-.05.76-.09s.59-.1.89-.15l.74-.14.88-.23c.23-.07.47-.12.71-.2s.59-.2.88-.3l.66-.24c.31-.13.6-.27.9-.41s.4-.17.59-.27.64-.35.95-.53l.47-.26c.46-.29.9-.6,1.33-.93L93.47,133.2l20.7-5.08-14.44,61.4-1.2,5.1a11,11,0,0,0-.3,2.4,11.31,11.31,0,0,0,.22,2.39,11.59,11.59,0,0,0,.74,2.32,12.29,12.29,0,0,0,1.23,2.2l15.92,22.87,18.48,26.57,34.41,49.45a15,15,0,0,0,2.07,2.37,17.45,17.45,0,0,0,2.56,1.92,18.68,18.68,0,0,0,2.94,1.45,21.39,21.39,0,0,0,7.76,1.44,21.62,21.62,0,0,0,6.41-1,19.6,19.6,0,0,0,2.05-.78,16.88,16.88,0,0,0,5.29-3.58,13.83,13.83,0,0,0,1.82-2.27,11.45,11.45,0,0,0-.28-13.07Z"/><path class="cls-2" d="M34.93,171.12,34,171Z"/><path class="cls-2" d="M36.62,171.2l-.9,0Z"/><path class="cls-2" d="M43.14,170.25c-.24.08-.48.13-.71.2C42.66,170.38,42.9,170.33,43.14,170.25Z"/><path class="cls-2" d="M176.8,308.56a18.68,18.68,0,0,1-2.94-1.45A18.68,18.68,0,0,0,176.8,308.56Z"/><path class="cls-2" d="M173.86,307.11a17.45,17.45,0,0,1-2.56-1.92A17.45,17.45,0,0,0,173.86,307.11Z"/><path class="cls-2" d="M41.55,170.68l-.74.14Z"/><path class="cls-2" d="M46.17,169c-.19.1-.4.18-.59.27C45.77,169.21,46,169.13,46.17,169Z"/><path class="cls-2" d="M39.92,171c-.25,0-.5.06-.76.09C39.42,171,39.67,171,39.92,171Z"/><path class="cls-2" d="M38.28,171.15l-.78,0Z"/><path class="cls-2" d="M44.68,169.71,44,170Z"/><path class="cls-2" d="M47.59,168.24l-.47.26Z"/><path class="cls-2" d="M135.66,94.13l.75,0Z"/><path class="cls-2" d="M144.45,95.54c.42.17.84.35,1.24.54C145.29,95.89,144.87,95.71,144.45,95.54Z"/><path class="cls-2" d="M145.92,96.2c.34.16.66.34,1,.52C146.58,96.54,146.26,96.36,145.92,96.2Z"/><path class="cls-2" d="M147.22,96.91c.39.23.77.47,1.13.72C148,97.38,147.61,97.14,147.22,96.91Z"/><path class="cls-2" d="M143.1,95.07c.35.11.7.23,1,.36C143.8,95.3,143.45,95.18,143.1,95.07Z"/><path class="cls-2" d="M33.24,170.91c-.3,0-.6-.12-.9-.18C32.64,170.79,32.94,170.86,33.24,170.91Z"/><path class="cls-2" d="M141.43,94.62c.45.1.9.22,1.33.35C142.33,94.84,141.88,94.72,141.43,94.62Z"/><path class="cls-2" d="M140.05,94.36l1.18.22Z"/><path class="cls-2" d="M199.85,289.33A11.71,11.71,0,0,1,202,296a11.71,11.71,0,0,0-2.19-6.62l-65.76-94.51h0Z"/><path class="cls-2" d="M169.23,302.82l-34.41-49.45,34.41,49.45a15,15,0,0,0,2.07,2.37A15,15,0,0,1,169.23,302.82Z"/><path class="cls-2" d="M132.74,94.46c-.4.08-.8.16-1.2.26L79.18,107.56l52.36-12.84C131.94,94.62,132.34,94.54,132.74,94.46Z"/><path class="cls-2" d="M154,106.11a10.62,10.62,0,0,1,.17,1.78A10.62,10.62,0,0,0,154,106.11Z"/><polygon class="cls-2" points="114.17 128.12 99.73 189.53 99.73 189.53 114.17 128.12"/><path class="cls-2" d="M153.26,103.53a11.4,11.4,0,0,1,.77,2.58A11.4,11.4,0,0,0,153.26,103.53Z"/><path class="cls-2" d="M28.41,169.51l-.88-.43Z"/><path class="cls-2" d="M138.38,94.17c.43,0,.86.08,1.28.14C139.24,94.25,138.81,94.2,138.38,94.17Z"/><path class="cls-2" d="M26.92,168.78c-.32-.18-.62-.37-.93-.56C26.3,168.41,26.6,168.6,26.92,168.78Z"/><path class="cls-2" d="M31.59,170.57c-.3-.07-.6-.17-.9-.25C31,170.4,31.29,170.5,31.59,170.57Z"/><path class="cls-2" d="M30,170.1c-.31-.1-.6-.22-.89-.33C29.38,169.88,29.67,170,30,170.1Z"/><path class="cls-2" d="M25.5,167.92c-.45-.31-.9-.64-1.32-1C24.6,167.28,25.05,167.61,25.5,167.92Z"/><path class="cls-2" d="M136.85,94.11c.47,0,.94,0,1.41,0C137.79,94.12,137.32,94.11,136.85,94.11Z"/><path class="cls-2" d="M134.42,94.23l.75-.07Z"/><path class="cls-2" d="M133.13,94.4c.27-.05.55-.09.82-.12C133.68,94.31,133.4,94.35,133.13,94.4Z"/><path class="cls-2" d="M23,165.86a13.84,13.84,0,0,1-1.86-2.34A13.84,13.84,0,0,0,23,165.86Z"/><path class="cls-2" d="M21.14,163.52A12.24,12.24,0,0,1,19.92,161,12.24,12.24,0,0,0,21.14,163.52Z"/><path class="cls-2" d="M99.73,189.52h0l-1.2,5.1a11,11,0,0,0-.3,2.4,11,11,0,0,1,.3-2.4Z"/><circle class="cls-3" cx="161.79" cy="43.5" r="36"/></g></g></svg>