<svg xmlns="http://www.w3.org/2000/svg" viewBox="0 0 367 207.03"><title>icon_car</title><g id="Layer_2" data-name="Layer 2"><g id="Layer_1-2" data-name="Layer 1"><circle cx="79.29" cy="178.53" r="28.5"/><path d="M284.74,67.88l-47.5-60A20.77,20.77,0,0,0,221,0H78.44A20.79,20.79,0,0,0,61.8,8.33L4.13,85.47A20.78,20.78,0,0,0,0,97.9v60.34A20.77,20.77,0,0,0,20.76,179H37.81c0-.16,0-.31,0-.47a41.48,41.48,0,0,1,83,0c0,.16,0,.31,0,.47H230.81c0-.16,0-.31,0-.47a41.48,41.48,0,0,1,82.95,0c0,.16,0,.31,0,.47h32.5A20.77,20.77,0,0,0,367,158.24V119.57a20.78,20.78,0,0,0-12.58-19.09L292.83,74.07A20.78,20.78,0,0,1,284.74,67.88Z"/><circle cx="272.29" cy="178.53" r="28.5"/></g></g></svg>