<svg width="54" height="55" viewBox="0 0 54 55" fill="none" xmlns="http://www.w3.org/2000/svg">
<path d="M28.2206 25.8167L28.2317 15.9999C28.2317 15.5696 28.0656 15.1568 27.7698 14.8525C27.4741 14.5481 27.0729 14.3771 26.6547 14.3771C26.2364 14.3771 25.8353 14.5481 25.5395 14.8525C25.2438 15.1568 25.0776 15.5695 25.0776 15.9999L25.0887 25.8167L15.5488 25.8053C15.1305 25.8053 14.7294 25.9763 14.4337 26.2806C14.1379 26.5849 13.9718 26.9977 13.9718 27.4281C13.9718 27.8585 14.1379 28.2713 14.4337 28.5756C14.7294 28.8799 15.1305 29.0509 15.5488 29.0509L25.0887 29.0395L25.0776 38.8563C25.0768 39.0696 25.117 39.281 25.196 39.4783C25.2749 39.6756 25.391 39.8548 25.5376 40.0057C25.6843 40.1566 25.8584 40.2761 26.0502 40.3573C26.2419 40.4386 26.4473 40.4799 26.6547 40.4791C26.862 40.4799 27.0675 40.4386 27.2592 40.3573C27.4509 40.2761 27.6251 40.1566 27.7717 40.0057C27.9183 39.8548 28.0344 39.6756 28.1134 39.4783C28.1924 39.281 28.2326 39.0696 28.2317 38.8563L28.2206 29.0395L37.7606 29.0509C37.9679 29.0518 38.1733 29.0104 38.3651 28.9292C38.5568 28.8479 38.731 28.7284 38.8776 28.5775C39.0242 28.4267 39.1403 28.2474 39.2193 28.0502C39.2982 27.8529 39.3384 27.6415 39.3376 27.4281C39.3384 27.2148 39.2982 27.0033 39.2193 26.8061C39.1403 26.6088 39.0242 26.4295 38.8776 26.2787C38.731 26.1278 38.5568 26.0083 38.3651 25.9271C38.1733 25.8458 37.9679 25.8044 37.7606 25.8053L28.2206 25.8167Z" fill="white"/>
</svg>
