<svg xmlns="http://www.w3.org/2000/svg" viewBox="0 0 396.98 297.98"><defs><style>.cls-1{fill:none;stroke:#000;stroke-linecap:round;stroke-linejoin:round;stroke-width:12px;}</style></defs><title>icon_cart</title><g id="Layer_2" data-name="Layer 2"><g id="Layer_1-2" data-name="Layer 1"><circle cx="150.17" cy="272" r="25.92"/><circle cx="314.73" cy="272.06" r="25.92"/><path d="M369.45,44.19A15.54,15.54,0,0,1,384.07,65l-49.8,138.33h-200L81.47,44.19h288m0-12h-288A12,12,0,0,0,70.08,48L122.82,207.1a12,12,0,0,0,11.4,8.22h200a12,12,0,0,0,11.29-7.93l49.8-138.33a27.54,27.54,0,0,0-25.91-36.87Z"/><polyline class="cls-1" points="6 6 58.74 6 139.67 246.06 346.09 246.06"/><line class="cls-1" x1="150.58" y1="44.19" x2="150.58" y2="203.32"/><line class="cls-1" x1="211.21" y1="44.19" x2="211.21" y2="203.32"/><line class="cls-1" x1="271.83" y1="44.19" x2="271.83" y2="203.32"/><line class="cls-1" x1="332.45" y1="44.19" x2="332.45" y2="203.32"/><line class="cls-1" x1="89.66" y1="96.93" x2="377.92" y2="96.93"/><line class="cls-1" x1="108.75" y1="156.04" x2="350.64" y2="156.04"/></g></g></svg>