<svg xmlns="http://www.w3.org/2000/svg" viewBox="0 0 380 227.03"><defs><style>.cls-1{fill:#fff;stroke:#000;stroke-linecap:round;stroke-linejoin:round;stroke-width:12px;}</style></defs><title>icon_delivery</title><g id="Layer_2" data-name="Layer 2"><g id="Layer_1-2" data-name="Layer 1"><path class="cls-1" d="M313.36,44H267.62A7.62,7.62,0,0,0,260,51.62V177.38a7.62,7.62,0,0,0,7.62,7.62h.62a7.7,7.7,0,0,0,6.92-4.45,41.48,41.48,0,0,1,74.75,0,7.72,7.72,0,0,0,6.93,4.45h9.54a7.62,7.62,0,0,0,7.62-7.62V117.2a7.67,7.67,0,0,0-1.69-4.8l-53-65.57A7.63,7.63,0,0,0,313.36,44Z"/><polygon class="cls-1" points="280.27 67.28 306.61 67.28 338.5 104.5 279.5 104.5 280.27 67.28"/><path class="cls-1" d="M6,27.15v136.7A21.15,21.15,0,0,0,27.15,185h0a21.26,21.26,0,0,0,17.64-9.5,41.46,41.46,0,0,1,69,0A21.28,21.28,0,0,0,131.4,185H238.85A21.15,21.15,0,0,0,260,163.85V27.15A21.15,21.15,0,0,0,238.85,6H27.15A21.15,21.15,0,0,0,6,27.15Z"/><circle cx="79.29" cy="198.53" r="28.5"/><circle cx="312.52" cy="198.53" r="28.5"/></g></g></svg>