<svg width="73" height="73" viewBox="0 0 73 73" fill="none" xmlns="http://www.w3.org/2000/svg">
<g id="Group 192">
<path id="Line 10" d="M14.2104 26.5789H34.1052" stroke="black" stroke-width="3" stroke-linecap="round"/>
<path id="Line 11" d="M14.3987 36.9963H28.7972" stroke="black" stroke-width="3" stroke-linecap="round"/>
<path id="Line 12" d="M14.3987 48.9949H31.1969" stroke="black" stroke-width="3" stroke-linecap="round"/>
<path id="Vector" d="M57.594 68.2005H4.7995V15.4059H36.5242L41.3237 10.6064H4.7995C3.52659 10.6064 2.30582 11.1121 1.40574 12.0122C0.50566 12.9123 0 14.133 0 15.4059V68.2005C0 69.4734 0.50566 70.6941 1.40574 71.5942C2.30582 72.4943 3.52659 73 4.7995 73H57.594C58.8669 73 60.0877 72.4943 60.9878 71.5942C61.8879 70.6941 62.3935 69.4734 62.3935 68.2005V32.2042L57.594 37.0037V68.2005Z" fill="black"/>
<path id="Vector_2" d="M56.9514 1.78284L56.9519 1.7823C57.3573 1.37583 57.8388 1.05334 58.369 0.833303C58.8992 0.613264 59.4676 0.5 60.0417 0.5C60.6157 0.5 61.1841 0.613264 61.7143 0.833303C62.2445 1.05334 62.7261 1.37583 63.1314 1.7823L71.2176 9.86849C71.2177 9.86861 71.2179 9.86873 71.218 9.86885L56.9514 1.78284ZM56.9514 1.78284L24.0508 34.8754L23.9502 34.9765L23.9182 35.1155L21.2544 46.6583L21.2543 46.6583L21.2516 46.6713C21.1235 47.3033 21.1369 47.9558 21.2911 48.5819C21.4452 49.208 21.7362 49.7921 22.1431 50.2923C22.55 50.7925 23.0627 51.1963 23.6443 51.4747C24.218 51.7493 24.8448 51.8951 25.4805 51.902L56.9514 1.78284ZM59.6236 19.4626L35.289 43.9385L27.4252 45.6788L29.2515 37.8796L53.5635 13.4026L59.6236 19.4626ZM63.0425 16.0439L56.9778 9.97918L59.9971 6.90145L66.1007 13.0051L63.0425 16.0439Z" fill="black" stroke="#F0EAEA"/>
</g>
</svg>
