<svg width="31" height="30" viewBox="0 0 31 30" fill="none" xmlns="http://www.w3.org/2000/svg">
<path fill-rule="evenodd" clip-rule="evenodd" d="M27.7919 6.38877C28.1434 6.74039 28.3409 7.21721 28.3409 7.7144C28.3409 8.21158 28.1434 8.68841 27.7919 9.04002L13.7381 23.0938C13.5524 23.2795 13.3319 23.4269 13.0892 23.5274C12.8465 23.628 12.5864 23.6797 12.3238 23.6797C12.0611 23.6797 11.801 23.628 11.5583 23.5274C11.3156 23.4269 11.0951 23.2795 10.9094 23.0938L3.92688 16.1125C3.7478 15.9396 3.60495 15.7327 3.50669 15.5039C3.40842 15.2751 3.3567 15.0291 3.35453 14.7801C3.35237 14.5312 3.39981 14.2843 3.49409 14.0539C3.58836 13.8234 3.72759 13.6141 3.90364 13.438C4.07969 13.262 4.28903 13.1228 4.51946 13.0285C4.74989 12.9342 4.99679 12.8868 5.24575 12.8889C5.49472 12.8911 5.74075 12.9428 5.96951 13.0411C6.19827 13.1393 6.40516 13.2822 6.57813 13.4613L12.3231 19.2063L25.1394 6.38877C25.3135 6.21453 25.5203 6.07632 25.7478 5.98201C25.9754 5.88771 26.2193 5.83917 26.4656 5.83917C26.712 5.83917 26.9559 5.88771 27.1834 5.98201C27.411 6.07632 27.6178 6.21453 27.7919 6.38877Z" fill="#79CC1D"/>
</svg>
