<svg width="38" height="38" viewBox="0 0 38 38" fill="none" xmlns="http://www.w3.org/2000/svg">
<path fill-rule="evenodd" clip-rule="evenodd" d="M23.9196 26.2334C20.979 28.5832 17.2503 29.7177 13.4994 29.4039C9.74842 29.0902 6.25998 27.3521 3.7505 24.5465C1.24103 21.7409 -0.0989765 18.0808 0.00570169 14.318C0.11038 10.5552 1.6518 6.97534 4.31337 4.31362C6.97494 1.65189 10.5546 0.110386 14.3172 0.00570202C18.0798 -0.0989822 21.7396 1.2411 24.545 3.75072C27.3505 6.26034 29.0885 9.74898 29.4023 13.5001C29.716 17.2513 28.5815 20.9802 26.2319 23.921L37.4793 35.1668C37.64 35.3166 37.7689 35.4972 37.8584 35.6979C37.9478 35.8986 37.9959 36.1153 37.9997 36.335C38.0036 36.5547 37.9632 36.7729 37.8809 36.9766C37.7986 37.1803 37.6762 37.3654 37.5208 37.5208C37.3655 37.6762 37.1804 37.7986 36.9767 37.8809C36.773 37.9632 36.5548 38.0036 36.3351 37.9997C36.1154 37.9959 35.8988 37.9478 35.6981 37.8584C35.4974 37.7689 35.3168 37.64 35.167 37.4792L23.9196 26.2334ZM6.63187 22.8258C5.0308 21.2245 3.94034 19.1845 3.4983 16.9635C3.05625 14.7426 3.28247 12.4405 4.14836 10.3481C5.01424 8.25568 6.48094 6.46694 8.36307 5.20793C10.2452 3.94891 12.4583 3.27613 14.7227 3.27461C16.9871 3.27308 19.2011 3.94289 21.0849 5.19937C22.9687 6.45585 24.4378 8.2426 25.3065 10.3338C26.1752 12.4251 26.4045 14.7269 25.9655 16.9484C25.5264 19.1699 24.4387 21.2114 22.8398 22.8149L22.8289 22.8258L22.818 22.8346C20.6695 24.9782 17.758 26.1813 14.7231 26.1797C11.6882 26.1781 8.77805 24.9718 6.63187 22.8258Z" fill="black"/>
</svg>
