<svg xmlns="http://www.w3.org/2000/svg" viewBox="0 0 171 203"><defs><style>.cls-1{fill:#828282;}.cls-2{fill:#fff;}</style></defs><title>trash_1</title><g id="Layer_2" data-name="Layer 2"><g id="Layer_1-2" data-name="Layer 1"><path class="cls-1" d="M166.56,42H4.44C2,42,0,38.64,0,34.5S2,27,4.44,27H166.56C169,27,171,30.36,171,34.5S169,42,166.56,42Z"/><path class="cls-1" d="M112,42H59a7.5,7.5,0,0,1-7.5-7.5V7.5A7.5,7.5,0,0,1,59,0h53a7.5,7.5,0,0,1,7.5,7.5v27A7.5,7.5,0,0,1,112,42ZM66.5,27h38V15h-38Z"/><path class="cls-1" d="M100.36,48H13.13C8.7,48,5.2,51.31,5.51,55.2L16.94,196.75c.29,3.52,3.61,6.25,7.62,6.25H146.44c4,0,7.33-2.73,7.62-6.25L165.49,55.2c.31-3.89-3.19-7.2-7.62-7.2Z"/><path class="cls-2" d="M86.31,183a6,6,0,0,1-6-6V84a6,6,0,0,1,12,0v93A6,6,0,0,1,86.31,183Z"/><path class="cls-2" d="M116.82,183l-.65,0a6,6,0,0,1-5.32-6.61l10-93a6,6,0,1,1,11.93,1.28l-10,93A6,6,0,0,1,116.82,183Z"/><path class="cls-2" d="M55.81,183a6,6,0,0,1-6-5.36l-10-93a6,6,0,1,1,11.93-1.28l10,93A6,6,0,0,1,56.46,183Z"/></g></g></svg>